<svg width="458" height="365" viewBox="0 0 458 365" fill="none" xmlns="http://www.w3.org/2000/svg">
<g clip-path="url(#clip0_2143_412)">
<g filter="url(#filter0_d_2143_412)">
<path d="M412.799 56.2537H42.6892C36.1527 56.2537 30.8538 61.5592 30.8538 68.1038V307.248C30.8538 313.793 36.1527 319.098 42.6892 319.098H412.799C419.335 319.098 424.634 313.793 424.634 307.248V68.1038C424.634 61.5592 419.335 56.2537 412.799 56.2537Z" fill="white"/>
</g>
<g filter="url(#filter1_d_2143_412)">
<path d="M399.059 21.4754V175.617C399.059 179.839 396.084 183.254 392.402 183.254H184.388C180.715 183.254 177.731 179.83 177.731 175.617V21.4754C177.731 17.253 180.706 13.8387 184.388 13.8387H392.402C396.075 13.8387 399.059 17.262 399.059 21.4754Z" fill="white"/>
</g>
<path d="M291.769 244.711H276.197C274.544 244.711 273.204 246.052 273.204 247.707V283.484C273.204 285.139 274.544 286.481 276.197 286.481H291.769C293.422 286.481 294.762 285.139 294.762 283.484V247.707C294.762 246.052 293.422 244.711 291.769 244.711Z" fill="#9033DA"/>
<path d="M264.996 229.855H249.424C247.771 229.855 246.431 231.196 246.431 232.851V283.493C246.431 285.148 247.771 286.49 249.424 286.49H264.996C266.649 286.49 267.989 285.148 267.989 283.493V232.851C267.989 231.196 266.649 229.855 264.996 229.855Z" fill="#9033DA"/>
<path d="M318.532 256.27H302.96C301.307 256.27 299.967 257.612 299.967 259.267V283.484C299.967 285.139 301.307 286.481 302.96 286.481H318.532C320.185 286.481 321.525 285.139 321.525 283.484V259.267C321.525 257.612 320.185 256.27 318.532 256.27Z" fill="#9033DA"/>
<path d="M345.305 271.38H329.733C328.08 271.38 326.74 272.722 326.74 274.377V283.493C326.74 285.148 328.08 286.49 329.733 286.49H345.305C346.958 286.49 348.298 285.148 348.298 283.493V274.377C348.298 272.722 346.958 271.38 345.305 271.38Z" fill="#9033DA"/>
<path d="M236.201 223.825V290.622C236.201 292.937 238.078 294.817 240.391 294.817H352.379" stroke="#DDDCE8" stroke-width="2.95" stroke-miterlimit="10"/>
<path d="M121.891 34.4968H78.649C74.9578 34.4968 71.9558 37.4934 71.9558 41.1982V78.6099C71.9558 82.3148 74.9487 85.3113 78.649 85.3113H104.034L118.971 100.267V85.3113H121.891C125.592 85.3113 128.585 82.3148 128.585 78.6099V41.1982C128.585 37.4934 125.592 34.4968 121.891 34.4968Z" fill="white" stroke="#C4C5CB" stroke-miterlimit="10"/>
<path d="M98.6649 51.8043C98.6649 47.4003 95.5813 44.0859 91.482 44.0859C87.3827 44.0859 84.2266 47.4366 84.2266 51.9678C84.2266 56.4989 87.3101 59.6862 91.4004 59.6862C95.4906 59.6862 98.6649 56.3355 98.6649 51.8043ZM91.4911 55.6272C89.9493 55.6272 88.7884 54.02 88.7884 51.8134C88.7884 50.0518 89.6047 48.163 91.4095 48.163C92.9512 48.163 94.1121 49.7703 94.1121 51.9768C94.1121 53.7385 93.2959 55.6272 91.4911 55.6272Z" fill="#9033DA"/>
<path d="M111.707 46.2651C111.707 45.1119 110.791 44.213 109.612 44.213C108.85 44.213 108.179 44.5762 107.852 45.1392L89.0243 70.8824C88.8157 71.173 88.5708 71.6361 88.5708 72.2172C88.5708 73.3705 89.4687 74.2694 90.6205 74.2694C91.3732 74.2694 92.0353 73.9244 92.4253 73.3432L111.253 47.6C111.462 47.3094 111.707 46.8463 111.707 46.2651Z" fill="#9033DA"/>
<path d="M108.832 58.7872C104.696 58.7872 101.576 62.1379 101.576 66.669C101.576 71.2002 104.66 74.3875 108.75 74.3875C112.84 74.3875 116.015 71.0368 116.015 66.5056C116.015 61.9744 112.931 58.7872 108.841 58.7872H108.832ZM111.453 66.669C111.453 68.4307 110.636 70.3194 108.832 70.3194C107.29 70.3194 106.129 68.7122 106.129 66.5056C106.129 64.744 106.945 62.8552 108.75 62.8552C110.292 62.8552 111.453 64.4625 111.453 66.669Z" fill="#9033DA"/>
<path d="M71.0218 198.055H147.54C155.103 198.055 161.243 204.202 161.243 211.776V351.279C161.243 358.853 155.103 365 147.54 365H71.0218C63.458 365 57.3181 358.853 57.3181 351.279V211.776C57.3181 204.202 63.458 198.055 71.0218 198.055Z" fill="#DDDCE8"/>
<path d="M153.317 226.967C153.317 237.183 145.045 245.464 134.833 245.464H82.5396C72.3367 245.464 64.0564 237.183 64.0564 226.967C64.0564 216.752 72.3276 208.47 82.5396 208.47H134.833C145.036 208.47 153.317 216.752 153.317 226.967Z" fill="white"/>
<path d="M119.688 237.628C115.271 237.628 111.67 234.032 111.67 229.601V224.325C111.67 219.903 115.262 216.307 119.688 216.307C124.114 216.307 127.705 219.903 127.705 224.325V229.601C127.705 234.023 124.104 237.628 119.688 237.628ZM119.688 219.358C116.949 219.358 114.727 221.592 114.727 224.325V229.601C114.727 232.343 116.949 234.568 119.688 234.568C122.427 234.568 124.649 232.334 124.649 229.601V224.325C124.649 221.583 122.427 219.358 119.688 219.358Z" fill="#9033DA"/>
<path d="M139.123 237.628C134.706 237.628 131.106 234.032 131.106 229.601V224.325C131.106 219.903 134.706 216.307 139.123 216.307C143.54 216.307 147.14 219.903 147.14 224.325V229.601C147.14 234.023 143.549 237.628 139.123 237.628ZM139.123 219.358C136.384 219.358 134.162 221.592 134.162 224.325V229.601C134.162 232.343 136.384 234.568 139.123 234.568C141.862 234.568 144.084 232.334 144.084 229.601V224.325C144.084 221.583 141.862 219.358 139.123 219.358Z" fill="#9033DA"/>
<path d="M131.097 234.232H127.705V237.628H131.097V234.232Z" fill="#9033DA"/>
<path d="M95.8443 271.416C95.8443 274.867 93.0419 277.673 89.5956 277.673H84.5259C81.0704 277.673 78.2771 274.867 78.2771 271.416C78.2771 267.966 81.0704 265.16 84.5259 265.16H89.5956C93.051 265.16 95.8443 267.957 95.8443 271.416Z" fill="#9033DA"/>
<path d="M117.475 271.416C117.475 274.867 114.672 277.673 111.226 277.673H106.156C102.701 277.673 99.9075 274.867 99.9075 271.416C99.9075 267.966 102.701 265.16 106.156 265.16H111.226C114.681 265.16 117.475 267.957 117.475 271.416Z" fill="#9033DA"/>
<path d="M139.114 271.416C139.114 274.867 136.312 277.673 132.865 277.673H127.796C124.34 277.673 121.547 274.867 121.547 271.416C121.547 267.966 124.34 265.16 127.796 265.16H132.865C136.321 265.16 139.114 267.957 139.114 271.416Z" fill="#9033DA"/>
<path d="M95.8443 293.5C95.8443 296.951 93.0419 299.757 89.5956 299.757H84.5259C81.0704 299.757 78.2771 296.96 78.2771 293.5C78.2771 290.05 81.0704 287.244 84.5259 287.244H89.5956C93.051 287.244 95.8443 290.04 95.8443 293.5Z" fill="#9033DA"/>
<path d="M117.475 293.5C117.475 296.951 114.672 299.757 111.226 299.757H106.156C102.701 299.757 99.9075 296.96 99.9075 293.5C99.9075 290.05 102.701 287.244 106.156 287.244H111.226C114.681 287.244 117.475 290.04 117.475 293.5Z" fill="#9033DA"/>
<path d="M139.114 293.5C139.114 296.951 136.312 299.757 132.865 299.757H127.796C124.34 299.757 121.547 296.96 121.547 293.5C121.547 290.05 124.34 287.244 127.796 287.244H132.865C136.321 287.244 139.114 290.04 139.114 293.5Z" fill="#9033DA"/>
<path d="M95.8443 315.575C95.8443 319.025 93.0419 321.831 89.5956 321.831H84.5259C81.0704 321.831 78.2771 319.034 78.2771 315.575C78.2771 312.124 81.0704 309.318 84.5259 309.318H89.5956C93.051 309.318 95.8443 312.124 95.8443 315.575Z" fill="#9033DA"/>
<path d="M117.475 315.575C117.475 319.025 114.672 321.831 111.226 321.831H106.156C102.701 321.831 99.9075 319.034 99.9075 315.575C99.9075 312.124 102.701 309.318 106.156 309.318H111.226C114.681 309.318 117.475 312.124 117.475 315.575Z" fill="#9033DA"/>
<path d="M139.114 315.575C139.114 319.025 136.312 321.831 132.865 321.831H127.796C124.34 321.831 121.547 319.034 121.547 315.575C121.547 312.124 124.34 309.318 127.796 309.318H132.865C136.321 309.318 139.114 312.124 139.114 315.575Z" fill="#9033DA"/>
<path d="M95.8443 337.659C95.8443 341.109 93.0419 343.915 89.5956 343.915H84.5259C81.0704 343.915 78.2771 341.118 78.2771 337.659C78.2771 334.208 81.0704 331.402 84.5259 331.402H89.5956C93.051 331.402 95.8443 334.208 95.8443 337.659Z" fill="#9033DA"/>
<path d="M117.475 337.659C117.475 341.109 114.672 343.915 111.226 343.915H106.156C102.701 343.915 99.9075 341.118 99.9075 337.659C99.9075 334.208 102.701 331.402 106.156 331.402H111.226C114.681 331.402 117.475 334.208 117.475 337.659Z" fill="#9033DA"/>
<path d="M139.114 337.659C139.114 341.109 136.312 343.915 132.865 343.915H127.796C124.34 343.915 121.547 341.118 121.547 337.659C121.547 334.208 124.34 331.402 127.796 331.402H132.865C136.321 331.402 139.114 334.208 139.114 337.659Z" fill="#9033DA"/>
<path d="M145.562 124.376H57.5901V132.503H145.562V124.376Z" fill="#DDDCE8"/>
<path d="M145.562 143.181H57.5901V151.308H145.562V143.181Z" fill="#DDDCE8"/>
<path d="M145.562 161.996H57.5901V170.123H145.562V161.996Z" fill="#DDDCE8"/>
<path d="M384.702 74.5782H324.454V80.4805H384.702V74.5782Z" fill="#DDDCE8"/>
<path d="M384.702 98.0059H324.454V103.908H384.702V98.0059Z" fill="#DDDCE8"/>
<path d="M384.702 121.424H324.454V127.327H384.702V121.424Z" fill="#DDDCE8"/>
<path d="M284.919 110.417C291.102 87.0042 277.157 63.0059 253.773 56.8156C230.389 50.6252 206.421 64.5869 200.238 87.9999C194.055 111.413 208 135.411 231.384 141.602C254.768 147.792 278.737 133.83 284.919 110.417Z" fill="#C08AFF"/>
<path d="M286.382 99.2136C286.382 74.9959 266.774 55.3638 242.586 55.3638V143.063C266.774 143.063 286.382 123.431 286.382 99.2136Z" fill="#AF62F9"/>
<path d="M198.79 99.2136C198.79 123.431 218.398 143.063 242.586 143.063C266.774 143.063 286.381 123.431 286.381 99.2136C286.381 99.15 286.381 99.0865 286.381 99.0229H198.799C198.799 99.0865 198.799 99.15 198.799 99.2136H198.79Z" fill="#9033DA"/>
<path d="M310.751 83.8222C313.987 83.8222 316.61 81.1959 316.61 77.9562C316.61 74.7164 313.987 72.0901 310.751 72.0901C307.515 72.0901 304.892 74.7164 304.892 77.9562C304.892 81.1959 307.515 83.8222 310.751 83.8222Z" fill="#9033DA"/>
<path d="M310.751 106.269C313.987 106.269 316.61 103.643 316.61 100.403C316.61 97.1634 313.987 94.5371 310.751 94.5371C307.515 94.5371 304.892 97.1634 304.892 100.403C304.892 103.643 307.515 106.269 310.751 106.269Z" fill="#AF62F9"/>
<path d="M310.751 128.716C313.987 128.716 316.61 126.09 316.61 122.85C316.61 119.61 313.987 116.984 310.751 116.984C307.515 116.984 304.892 119.61 304.892 122.85C304.892 126.09 307.515 128.716 310.751 128.716Z" fill="#C08AFF"/>
</g>
<defs>
<filter id="filter0_d_2143_412" x="9.17376" y="43.7037" width="439.42" height="308.484" filterUnits="userSpaceOnUse" color-interpolation-filters="sRGB">
<feFlood flood-opacity="0" result="BackgroundImageFix"/>
<feColorMatrix in="SourceAlpha" type="matrix" values="0 0 0 0 0 0 0 0 0 0 0 0 0 0 0 0 0 0 127 0" result="hardAlpha"/>
<feOffset dx="1.14" dy="10.27"/>
<feGaussianBlur stdDeviation="11.41"/>
<feColorMatrix type="matrix" values="0 0 0 0 0.101961 0 0 0 0 0.14902 0 0 0 0 0.356863 0 0 0 0.3 0"/>
<feBlend mode="normal" in2="BackgroundImageFix" result="effect1_dropShadow_2143_412"/>
<feBlend mode="normal" in="SourceGraphic" in2="effect1_dropShadow_2143_412" result="shape"/>
</filter>
<filter id="filter1_d_2143_412" x="164.681" y="6.27868" width="248.807" height="196.895" filterUnits="userSpaceOnUse" color-interpolation-filters="sRGB">
<feFlood flood-opacity="0" result="BackgroundImageFix"/>
<feColorMatrix in="SourceAlpha" type="matrix" values="0 0 0 0 0 0 0 0 0 0 0 0 0 0 0 0 0 0 127 0" result="hardAlpha"/>
<feOffset dx="0.69" dy="6.18"/>
<feGaussianBlur stdDeviation="6.87"/>
<feColorMatrix type="matrix" values="0 0 0 0 0.101961 0 0 0 0 0.14902 0 0 0 0 0.356863 0 0 0 0.3 0"/>
<feBlend mode="normal" in2="BackgroundImageFix" result="effect1_dropShadow_2143_412"/>
<feBlend mode="normal" in="SourceGraphic" in2="effect1_dropShadow_2143_412" result="shape"/>
</filter>
<clipPath id="clip0_2143_412">
<rect width="458" height="365" fill="white"/>
</clipPath>
</defs>
</svg>
